<?xml version="1.0" encoding="iso-8859-1"?>
<!-- Generator: Adobe Illustrator 19.0.0, SVG Export Plug-In . SVG Version: 6.00 Build 0)  -->
<svg version="1.1" id="Layer_1" xmlns="http://www.w3.org/2000/svg" xmlns:xlink="http://www.w3.org/1999/xlink" x="0px" y="0px"
	 viewBox="0 0 10 10" style="enable-background:new 0 0 10 10;" xml:space="preserve">
<path id="XMLID_453_" d="M329.987,54.738c-0.005-0.291-0.022-0.58-0.044-0.87c-0.016-0.209-0.03-0.417-0.054-0.624
	c-0.032-0.275-0.078-0.549-0.126-0.824c-0.038-0.217-0.074-0.435-0.121-0.649c-0.056-0.252-0.124-0.501-0.193-0.751
	c-0.063-0.229-0.124-0.458-0.198-0.683c-0.074-0.227-0.162-0.451-0.247-0.676c-0.091-0.239-0.182-0.479-0.285-0.712
	c-0.09-0.203-0.191-0.402-0.29-0.603c-0.122-0.247-0.246-0.492-0.382-0.73c-0.103-0.183-0.217-0.362-0.329-0.542
	c-0.153-0.244-0.309-0.485-0.475-0.72c-0.052-0.073-0.093-0.15-0.147-0.223c-0.077-0.106-0.165-0.198-0.245-0.301
	c-0.166-0.213-0.335-0.423-0.511-0.627c-0.161-0.187-0.326-0.367-0.494-0.544c-0.16-0.168-0.323-0.332-0.491-0.492
	c-0.195-0.187-0.394-0.368-0.598-0.543c-0.159-0.137-0.322-0.27-0.487-0.399c-0.218-0.172-0.438-0.338-0.664-0.497
	c-0.174-0.123-0.353-0.239-0.532-0.354c-0.222-0.142-0.446-0.28-0.674-0.41c-0.205-0.116-0.413-0.224-0.623-0.331
	c-0.212-0.108-0.425-0.212-0.642-0.31c-0.237-0.106-0.478-0.204-0.722-0.298c-0.202-0.078-0.403-0.153-0.608-0.222
	c-0.259-0.088-0.521-0.166-0.786-0.24c-0.205-0.057-0.41-0.111-0.617-0.159c-0.26-0.061-0.522-0.113-0.786-0.16
	c-0.23-0.041-0.46-0.076-0.692-0.106c-0.241-0.031-0.482-0.057-0.727-0.076c-0.27-0.022-0.539-0.034-0.81-0.041
	C315.257,40.016,315.131,40,315,40H15c-0.132,0-0.26,0.017-0.392,0.02c-0.268,0.007-0.535,0.02-0.801,0.041
	c-0.248,0.02-0.492,0.046-0.736,0.077c-0.229,0.03-0.455,0.064-0.682,0.104c-0.268,0.047-0.534,0.101-0.798,0.162
	c-0.203,0.047-0.403,0.1-0.603,0.155c-0.269,0.075-0.536,0.154-0.799,0.244c-0.2,0.067-0.397,0.142-0.594,0.217
	c-0.248,0.096-0.494,0.195-0.735,0.304c-0.212,0.095-0.421,0.198-0.629,0.303c-0.214,0.109-0.427,0.22-0.635,0.338
	c-0.224,0.127-0.443,0.263-0.662,0.402c-0.184,0.118-0.367,0.237-0.545,0.363c-0.222,0.156-0.439,0.319-0.652,0.488
	c-0.169,0.133-0.335,0.268-0.498,0.408c-0.201,0.172-0.397,0.351-0.59,0.536c-0.17,0.163-0.335,0.329-0.498,0.499
	c-0.167,0.175-0.33,0.354-0.489,0.539c-0.177,0.205-0.347,0.416-0.513,0.63c-0.079,0.103-0.167,0.195-0.244,0.3
	c-0.053,0.073-0.095,0.149-0.147,0.223c-0.166,0.235-0.322,0.476-0.474,0.72c-0.113,0.18-0.226,0.359-0.33,0.542
	c-0.135,0.239-0.259,0.484-0.381,0.73c-0.099,0.201-0.201,0.4-0.291,0.603c-0.103,0.233-0.194,0.473-0.285,0.712
	c-0.086,0.225-0.173,0.448-0.247,0.676c-0.074,0.225-0.135,0.454-0.198,0.683c-0.068,0.25-0.137,0.499-0.193,0.751
	c-0.047,0.214-0.083,0.432-0.121,0.649c-0.048,0.274-0.094,0.548-0.126,0.824c-0.024,0.206-0.038,0.415-0.054,0.624
	c-0.022,0.29-0.039,0.58-0.044,0.87C0.012,54.825,0,54.911,0,55v220c0,8.284,6.716,15,15,15h300c8.284,0,15-6.716,15-15V55
	C330,54.911,329.989,54.825,329.987,54.738z M269.181,70L165,146.399L60.82,70H269.181z M30,260V84.602l126.13,92.495
	c2.64,1.936,5.755,2.904,8.871,2.904c3.115,0,6.231-0.968,8.871-2.904L300,84.602V260H30z"/>
<g>
</g>
<g>
</g>
<g>
</g>
<g>
</g>
<g>
</g>
<g>
</g>
<g>
</g>
<g>
</g>
<g>
</g>
<g>
</g>
<g>
</g>
<g>
</g>
<g>
</g>
<g>
</g>
<g>
</g>
</svg>
